# xmcd
#
# Track frame offsets:
#	150
#	9601
#	26632
#	41237
#	60256
#	66380
#	88994
#	108378
#	132109
#	152513
#	172010
#	190430
#	209796
#	230645
#	259166
#	273295
#
# Disc length: 3893 seconds
#
# Revision: 0
# Processed by: cddbd v1.4PL0 Copyright (c) Steve Scherf et al.
# Submitted via: EasyCDDAExtractor 4.5.0.1
#
DISCID=ed0f3310
DTITLE=Kelly Price - Mirror Mirror
DYEAR=2000
DGENRE=R&B
TTITLE0=Mirror Mirror - Intro
TTITLE1=Good Love
TTITLE2=You Should've Told Me
TTITLE3=At Least (The Little Things)
TTITLE4=National Anthem (Interlude) Feat R.Kelly
TTITLE5=She Wants You
TTITLE6=3 Strikes
TTITLE7=Mirror Mirror
TTITLE8=Can't Run Away
TTITLE9=The Lullaby Feat Jeffery Jr&Jonia
TTITLE10=Married Man
TTITLE11=Like You Do Feat Method Man
TTITLE12=All I Want Is You Feat K-CI&Gerald Levert
TTITLE13=As We Lay
TTITLE14=I Know Who Holds Tomorrow
TTITLE15=Love Sets You Free Feat Kelly Price&Friends
EXTD=
EXTT0=
EXTT1=
EXTT2=
EXTT3=
EXTT4=
EXTT5=
EXTT6=
EXTT7=
EXTT8=
EXTT9=
EXTT10=
EXTT11=
EXTT12=
EXTT13=
EXTT14=
EXTT15=
PLAYORDER=
